<mxfile host="app.diagrams.net" modified="2023-09-30T04:54:02.746Z" agent="Mozilla/5.0 (Windows NT 10.0; Win64; x64) AppleWebKit/537.36 (KHTML, like Gecko) Chrome/117.0.0.0 Safari/537.36" etag="-JrhUn0HrelEI_JCYJU0" version="21.8.2" type="device">
  <diagram name="Page-1" id="k2Dj_frpBRqKJr_91Xw7">
    <mxGraphModel dx="880" dy="1578" grid="1" gridSize="10" guides="1" tooltips="1" connect="1" arrows="1" fold="1" page="1" pageScale="1" pageWidth="850" pageHeight="1100" math="0" shadow="0">
      <root>
        <mxCell id="0" />
        <mxCell id="1" parent="0" />
        <mxCell id="GFGAYdgl72mIqywiIJQ8-1" value="" style="html=1;points=[[0,0,0,0,5],[0,1,0,0,-5],[1,0,0,0,5],[1,1,0,0,-5]];perimeter=orthogonalPerimeter;outlineConnect=0;targetShapes=umlLifeline;portConstraint=eastwest;newEdgeStyle={&quot;curved&quot;:0,&quot;rounded&quot;:0};" parent="1" vertex="1">
          <mxGeometry x="216" y="210" width="10" height="200" as="geometry" />
        </mxCell>
        <mxCell id="GFGAYdgl72mIqywiIJQ8-2" value="onSearch(content)" style="html=1;verticalAlign=bottom;endArrow=block;curved=0;rounded=0;" parent="1" edge="1">
          <mxGeometry x="-0.0154" relative="1" as="geometry">
            <mxPoint x="216" y="730" as="sourcePoint" />
            <mxPoint x="346" y="730" as="targetPoint" />
            <mxPoint as="offset" />
          </mxGeometry>
        </mxCell>
        <mxCell id="GFGAYdgl72mIqywiIJQ8-3" value="Acceptance notification" style="html=1;verticalAlign=bottom;endArrow=open;dashed=1;endSize=8;curved=0;rounded=0;" parent="1" target="GFGAYdgl72mIqywiIJQ8-1" edge="1">
          <mxGeometry relative="1" as="geometry">
            <mxPoint x="350" y="270" as="targetPoint" />
            <mxPoint x="420" y="350" as="sourcePoint" />
          </mxGeometry>
        </mxCell>
        <mxCell id="GFGAYdgl72mIqywiIJQ8-4" value="" style="html=1;points=[[0,0,0,0,5],[0,1,0,0,-5],[1,0,0,0,5],[1,1,0,0,-5]];perimeter=orthogonalPerimeter;outlineConnect=0;targetShapes=umlLifeline;portConstraint=eastwest;newEdgeStyle={&quot;curved&quot;:0,&quot;rounded&quot;:0};" parent="1" vertex="1">
          <mxGeometry x="421" y="209" width="10" height="200" as="geometry" />
        </mxCell>
        <mxCell id="GFGAYdgl72mIqywiIJQ8-5" value="" style="html=1;points=[[0,0,0,0,5],[0,1,0,0,-5],[1,0,0,0,5],[1,1,0,0,-5]];perimeter=orthogonalPerimeter;outlineConnect=0;targetShapes=umlLifeline;portConstraint=eastwest;newEdgeStyle={&quot;curved&quot;:0,&quot;rounded&quot;:0};" parent="1" vertex="1">
          <mxGeometry x="206" y="710" width="10" height="380" as="geometry" />
        </mxCell>
        <mxCell id="GFGAYdgl72mIqywiIJQ8-6" value="initializes a friend request" style="html=1;verticalAlign=bottom;endArrow=block;curved=0;rounded=0;" parent="1" edge="1">
          <mxGeometry x="-0.1676" y="10" relative="1" as="geometry">
            <mxPoint x="233" y="230" as="sourcePoint" />
            <mxPoint x="418" y="230" as="targetPoint" />
            <mxPoint as="offset" />
          </mxGeometry>
        </mxCell>
        <mxCell id="GFGAYdgl72mIqywiIJQ8-7" value="user 1" style="shape=umlActor;verticalLabelPosition=bottom;verticalAlign=top;html=1;" parent="1" vertex="1">
          <mxGeometry x="206" y="120" width="30" height="60" as="geometry" />
        </mxCell>
        <mxCell id="GFGAYdgl72mIqywiIJQ8-8" value="user 2" style="shape=umlActor;verticalLabelPosition=bottom;verticalAlign=top;html=1;" parent="1" vertex="1">
          <mxGeometry x="631" y="120" width="30" height="60" as="geometry" />
        </mxCell>
        <mxCell id="GFGAYdgl72mIqywiIJQ8-10" value="send friend request" style="html=1;verticalAlign=bottom;endArrow=block;curved=0;rounded=0;" parent="1" edge="1">
          <mxGeometry x="-0.2541" y="10" relative="1" as="geometry">
            <mxPoint x="431" y="250" as="sourcePoint" />
            <mxPoint x="616" y="250" as="targetPoint" />
            <mxPoint as="offset" />
          </mxGeometry>
        </mxCell>
        <mxCell id="GFGAYdgl72mIqywiIJQ8-13" value="Receives friend request" style="html=1;whiteSpace=wrap;" parent="1" vertex="1">
          <mxGeometry x="617" y="210" width="110" height="50" as="geometry" />
        </mxCell>
        <mxCell id="GFGAYdgl72mIqywiIJQ8-15" value="" style="endArrow=open;endSize=12;dashed=1;html=1;rounded=0;exitX=0.436;exitY=1.14;exitDx=0;exitDy=0;exitPerimeter=0;" parent="1" source="GFGAYdgl72mIqywiIJQ8-13" edge="1">
          <mxGeometry x="0.0696" y="-5" width="160" relative="1" as="geometry">
            <mxPoint x="617" y="290" as="sourcePoint" />
            <mxPoint x="665" y="310" as="targetPoint" />
            <mxPoint as="offset" />
          </mxGeometry>
        </mxCell>
        <mxCell id="GFGAYdgl72mIqywiIJQ8-17" value="Accept Request" style="edgeLabel;html=1;align=center;verticalAlign=middle;resizable=0;points=[];" parent="GFGAYdgl72mIqywiIJQ8-15" vertex="1" connectable="0">
          <mxGeometry x="-0.1162" y="2" relative="1" as="geometry">
            <mxPoint as="offset" />
          </mxGeometry>
        </mxCell>
        <mxCell id="GFGAYdgl72mIqywiIJQ8-28" value="" style="edgeStyle=orthogonalEdgeStyle;rounded=0;orthogonalLoop=1;jettySize=auto;html=1;" parent="1" source="GFGAYdgl72mIqywiIJQ8-16" edge="1">
          <mxGeometry relative="1" as="geometry">
            <mxPoint x="662.5" y="467.5" as="targetPoint" />
          </mxGeometry>
        </mxCell>
        <mxCell id="GFGAYdgl72mIqywiIJQ8-29" value="No" style="edgeLabel;html=1;align=center;verticalAlign=middle;resizable=0;points=[];" parent="GFGAYdgl72mIqywiIJQ8-28" vertex="1" connectable="0">
          <mxGeometry x="0.0128" relative="1" as="geometry">
            <mxPoint as="offset" />
          </mxGeometry>
        </mxCell>
        <mxCell id="GFGAYdgl72mIqywiIJQ8-16" value="" style="strokeWidth=2;html=1;shape=mxgraph.flowchart.decision;whiteSpace=wrap;" parent="1" vertex="1">
          <mxGeometry x="630" y="311" width="65" height="71" as="geometry" />
        </mxCell>
        <mxCell id="GFGAYdgl72mIqywiIJQ8-18" value="Confirmation of acceptance" style="html=1;verticalAlign=bottom;endArrow=block;curved=0;rounded=0;" parent="1" edge="1">
          <mxGeometry x="0.01" y="-6" relative="1" as="geometry">
            <mxPoint x="631" y="346" as="sourcePoint" />
            <mxPoint x="431" y="346" as="targetPoint" />
            <mxPoint as="offset" />
          </mxGeometry>
        </mxCell>
        <mxCell id="GFGAYdgl72mIqywiIJQ8-30" value="Server" style="html=1;whiteSpace=wrap;" parent="1" vertex="1">
          <mxGeometry x="391" y="140" width="80" height="50" as="geometry" />
        </mxCell>
        <mxCell id="GFGAYdgl72mIqywiIJQ8-31" value="User 1" style="shape=umlActor;verticalLabelPosition=bottom;verticalAlign=top;html=1;" parent="1" vertex="1">
          <mxGeometry x="196" y="610" width="30" height="60" as="geometry" />
        </mxCell>
        <mxCell id="GFGAYdgl72mIqywiIJQ8-32" value="" style="html=1;points=[[0,0,0,0,5],[0,1,0,0,-5],[1,0,0,0,5],[1,1,0,0,-5]];perimeter=orthogonalPerimeter;outlineConnect=0;targetShapes=umlLifeline;portConstraint=eastwest;newEdgeStyle={&quot;curved&quot;:0,&quot;rounded&quot;:0};" parent="1" vertex="1">
          <mxGeometry x="378" y="710" width="10" height="350" as="geometry" />
        </mxCell>
        <mxCell id="GFGAYdgl72mIqywiIJQ8-33" value="" style="endArrow=open;endFill=1;endSize=12;html=1;rounded=0;" parent="1" source="GFGAYdgl72mIqywiIJQ8-32" target="GFGAYdgl72mIqywiIJQ8-32" edge="1">
          <mxGeometry width="160" relative="1" as="geometry">
            <mxPoint x="478" y="740" as="sourcePoint" />
            <mxPoint x="398" y="760" as="targetPoint" />
            <Array as="points">
              <mxPoint x="448" y="730" />
              <mxPoint x="448" y="760" />
            </Array>
          </mxGeometry>
        </mxCell>
        <mxCell id="g_V5Qm2-KfCFKTiSNF6y-1" value="validateSearch()" style="edgeLabel;html=1;align=center;verticalAlign=middle;resizable=0;points=[];" vertex="1" connectable="0" parent="GFGAYdgl72mIqywiIJQ8-33">
          <mxGeometry y="2" relative="1" as="geometry">
            <mxPoint as="offset" />
          </mxGeometry>
        </mxCell>
        <mxCell id="GFGAYdgl72mIqywiIJQ8-34" value="SearchPage" style="html=1;whiteSpace=wrap;" parent="1" vertex="1">
          <mxGeometry x="321" y="630" width="110" height="50" as="geometry" />
        </mxCell>
        <mxCell id="GFGAYdgl72mIqywiIJQ8-35" value="alt" style="shape=umlFrame;whiteSpace=wrap;html=1;pointerEvents=0;" parent="1" vertex="1">
          <mxGeometry x="312" y="795" width="618" height="295" as="geometry" />
        </mxCell>
        <mxCell id="GFGAYdgl72mIqywiIJQ8-36" value="Search Results Page" style="html=1;whiteSpace=wrap;" parent="1" vertex="1">
          <mxGeometry x="481" y="630" width="110" height="50" as="geometry" />
        </mxCell>
        <mxCell id="GFGAYdgl72mIqywiIJQ8-37" value="Server" style="html=1;whiteSpace=wrap;" parent="1" vertex="1">
          <mxGeometry x="620" y="630" width="110" height="50" as="geometry" />
        </mxCell>
        <mxCell id="GFGAYdgl72mIqywiIJQ8-38" value="Search Results" style="html=1;whiteSpace=wrap;" parent="1" vertex="1">
          <mxGeometry x="770" y="630" width="110" height="50" as="geometry" />
        </mxCell>
        <mxCell id="GFGAYdgl72mIqywiIJQ8-39" value="" style="html=1;points=[[0,0,0,0,5],[0,1,0,0,-5],[1,0,0,0,5],[1,1,0,0,-5]];perimeter=orthogonalPerimeter;outlineConnect=0;targetShapes=umlLifeline;portConstraint=eastwest;newEdgeStyle={&quot;curved&quot;:0,&quot;rounded&quot;:0};" parent="1" vertex="1">
          <mxGeometry x="540" y="870" width="10" height="80" as="geometry" />
        </mxCell>
        <mxCell id="GFGAYdgl72mIqywiIJQ8-40" value="" style="html=1;points=[[0,0,0,0,5],[0,1,0,0,-5],[1,0,0,0,5],[1,1,0,0,-5]];perimeter=orthogonalPerimeter;outlineConnect=0;targetShapes=umlLifeline;portConstraint=eastwest;newEdgeStyle={&quot;curved&quot;:0,&quot;rounded&quot;:0};" parent="1" vertex="1">
          <mxGeometry x="670" y="820" width="10" height="90" as="geometry" />
        </mxCell>
        <mxCell id="GFGAYdgl72mIqywiIJQ8-41" value="" style="html=1;points=[[0,0,0,0,5],[0,1,0,0,-5],[1,0,0,0,5],[1,1,0,0,-5]];perimeter=orthogonalPerimeter;outlineConnect=0;targetShapes=umlLifeline;portConstraint=eastwest;newEdgeStyle={&quot;curved&quot;:0,&quot;rounded&quot;:0};" parent="1" vertex="1">
          <mxGeometry x="820" y="850" width="10" height="100" as="geometry" />
        </mxCell>
        <mxCell id="GFGAYdgl72mIqywiIJQ8-43" value="" style="endArrow=open;endFill=1;endSize=12;html=1;rounded=0;" parent="1" edge="1">
          <mxGeometry width="160" relative="1" as="geometry">
            <mxPoint x="680" y="880" as="sourcePoint" />
            <mxPoint x="821" y="880" as="targetPoint" />
          </mxGeometry>
        </mxCell>
        <mxCell id="GFGAYdgl72mIqywiIJQ8-45" value="create()" style="edgeLabel;html=1;align=center;verticalAlign=middle;resizable=0;points=[];" parent="GFGAYdgl72mIqywiIJQ8-43" vertex="1" connectable="0">
          <mxGeometry x="-0.2199" y="1" relative="1" as="geometry">
            <mxPoint as="offset" />
          </mxGeometry>
        </mxCell>
        <mxCell id="GFGAYdgl72mIqywiIJQ8-47" value="display()" style="html=1;verticalAlign=bottom;startArrow=oval;startFill=1;endArrow=block;startSize=8;curved=0;rounded=0;entryX=1;entryY=1;entryDx=0;entryDy=-5;entryPerimeter=0;exitX=0;exitY=1;exitDx=0;exitDy=-5;exitPerimeter=0;" parent="1" source="GFGAYdgl72mIqywiIJQ8-41" target="GFGAYdgl72mIqywiIJQ8-39" edge="1">
          <mxGeometry x="0.6296" y="-5" width="60" relative="1" as="geometry">
            <mxPoint x="810" y="945" as="sourcePoint" />
            <mxPoint x="800" y="949" as="targetPoint" />
            <mxPoint as="offset" />
          </mxGeometry>
        </mxCell>
        <mxCell id="GFGAYdgl72mIqywiIJQ8-48" value="" style="endArrow=open;endFill=1;endSize=12;html=1;rounded=0;" parent="1" edge="1">
          <mxGeometry width="160" relative="1" as="geometry">
            <mxPoint x="388" y="1000" as="sourcePoint" />
            <mxPoint x="388" y="1030" as="targetPoint" />
            <Array as="points">
              <mxPoint x="448" y="1000" />
              <mxPoint x="448" y="1030" />
            </Array>
          </mxGeometry>
        </mxCell>
        <mxCell id="g_V5Qm2-KfCFKTiSNF6y-2" value="displayErrorMessage()" style="edgeLabel;html=1;align=center;verticalAlign=middle;resizable=0;points=[];" vertex="1" connectable="0" parent="GFGAYdgl72mIqywiIJQ8-48">
          <mxGeometry x="0.0267" y="1" relative="1" as="geometry">
            <mxPoint as="offset" />
          </mxGeometry>
        </mxCell>
        <mxCell id="GFGAYdgl72mIqywiIJQ8-51" value="" style="endArrow=none;dashed=1;html=1;rounded=0;" parent="1" edge="1">
          <mxGeometry width="50" height="50" relative="1" as="geometry">
            <mxPoint x="1760" y="-340" as="sourcePoint" />
            <mxPoint x="1810" y="-390" as="targetPoint" />
          </mxGeometry>
        </mxCell>
        <mxCell id="GFGAYdgl72mIqywiIJQ8-52" value="" style="endArrow=none;dashed=1;html=1;rounded=0;" parent="1" edge="1">
          <mxGeometry width="50" height="50" relative="1" as="geometry">
            <mxPoint x="1760" y="-360" as="sourcePoint" />
            <mxPoint x="1810" y="-410" as="targetPoint" />
          </mxGeometry>
        </mxCell>
        <mxCell id="GFGAYdgl72mIqywiIJQ8-53" value="" style="endArrow=none;dashed=1;html=1;rounded=0;" parent="1" edge="1">
          <mxGeometry width="50" height="50" relative="1" as="geometry">
            <mxPoint x="1760" y="-360" as="sourcePoint" />
            <mxPoint x="1810" y="-410" as="targetPoint" />
          </mxGeometry>
        </mxCell>
        <mxCell id="GFGAYdgl72mIqywiIJQ8-54" value="" style="endArrow=none;dashed=1;html=1;rounded=0;" parent="1" edge="1">
          <mxGeometry width="50" height="50" relative="1" as="geometry">
            <mxPoint x="1610" y="480" as="sourcePoint" />
            <mxPoint x="1660" y="430" as="targetPoint" />
          </mxGeometry>
        </mxCell>
        <mxCell id="GFGAYdgl72mIqywiIJQ8-55" value="" style="endArrow=none;dashed=1;html=1;rounded=0;exitX=0;exitY=0;exitDx=0;exitDy=5;exitPerimeter=0;" parent="1" edge="1">
          <mxGeometry width="50" height="50" relative="1" as="geometry">
            <mxPoint x="546" y="868" as="sourcePoint" />
            <mxPoint x="546" y="683" as="targetPoint" />
          </mxGeometry>
        </mxCell>
        <mxCell id="GFGAYdgl72mIqywiIJQ8-56" value="" style="endArrow=none;dashed=1;html=1;rounded=0;" parent="1" edge="1">
          <mxGeometry width="50" height="50" relative="1" as="geometry">
            <mxPoint x="30" y="1030" as="sourcePoint" />
            <mxPoint x="30" y="770" as="targetPoint" />
          </mxGeometry>
        </mxCell>
        <mxCell id="GFGAYdgl72mIqywiIJQ8-57" value="" style="endArrow=none;dashed=1;html=1;rounded=0;" parent="1" edge="1">
          <mxGeometry width="50" height="50" relative="1" as="geometry">
            <mxPoint x="674" y="820" as="sourcePoint" />
            <mxPoint x="674" y="680" as="targetPoint" />
          </mxGeometry>
        </mxCell>
        <mxCell id="GFGAYdgl72mIqywiIJQ8-58" value="" style="endArrow=none;dashed=1;html=1;rounded=0;" parent="1" edge="1">
          <mxGeometry width="50" height="50" relative="1" as="geometry">
            <mxPoint x="826" y="850" as="sourcePoint" />
            <mxPoint x="826" y="680" as="targetPoint" />
          </mxGeometry>
        </mxCell>
        <mxCell id="GFGAYdgl72mIqywiIJQ8-59" value="" style="endArrow=none;dashed=1;html=1;rounded=0;entryX=1.004;entryY=0.592;entryDx=0;entryDy=0;entryPerimeter=0;" parent="1" target="GFGAYdgl72mIqywiIJQ8-35" edge="1">
          <mxGeometry width="50" height="50" relative="1" as="geometry">
            <mxPoint x="310" y="970" as="sourcePoint" />
            <mxPoint x="850" y="970.3649999999998" as="targetPoint" />
            <Array as="points">
              <mxPoint x="580" y="970.25" />
            </Array>
          </mxGeometry>
        </mxCell>
        <mxCell id="GFGAYdgl72mIqywiIJQ8-60" value="" style="endArrow=none;dashed=1;html=1;rounded=0;" parent="1" edge="1">
          <mxGeometry width="50" height="50" relative="1" as="geometry">
            <mxPoint x="544" y="1090" as="sourcePoint" />
            <mxPoint x="544.4100000000001" y="950" as="targetPoint" />
          </mxGeometry>
        </mxCell>
        <mxCell id="GFGAYdgl72mIqywiIJQ8-61" value="" style="endArrow=none;dashed=1;html=1;rounded=0;" parent="1" edge="1">
          <mxGeometry width="50" height="50" relative="1" as="geometry">
            <mxPoint x="824.4100000000001" y="1090" as="sourcePoint" />
            <mxPoint x="824.8200000000002" y="950" as="targetPoint" />
          </mxGeometry>
        </mxCell>
        <mxCell id="GFGAYdgl72mIqywiIJQ8-63" value="" style="endArrow=none;dashed=1;html=1;rounded=0;" parent="1" edge="1">
          <mxGeometry width="50" height="50" relative="1" as="geometry">
            <mxPoint x="675.41" y="1090" as="sourcePoint" />
            <mxPoint x="675.4099999999999" y="910" as="targetPoint" />
          </mxGeometry>
        </mxCell>
        <mxCell id="GFGAYdgl72mIqywiIJQ8-64" value="search()" style="html=1;verticalAlign=bottom;endArrow=block;curved=0;rounded=0;exitX=1.2;exitY=0.371;exitDx=0;exitDy=0;exitPerimeter=0;" parent="1" edge="1">
          <mxGeometry x="-0.3571" y="1" width="80" relative="1" as="geometry">
            <mxPoint x="390.0000000000002" y="840.8500000000004" as="sourcePoint" />
            <mxPoint x="670" y="840.8500000000004" as="targetPoint" />
            <mxPoint as="offset" />
          </mxGeometry>
        </mxCell>
        <mxCell id="GFGAYdgl72mIqywiIJQ8-65" value="" style="endArrow=none;dashed=1;html=1;rounded=0;" parent="1" edge="1">
          <mxGeometry width="50" height="50" relative="1" as="geometry">
            <mxPoint x="383" y="710" as="sourcePoint" />
            <mxPoint x="383" y="680" as="targetPoint" />
          </mxGeometry>
        </mxCell>
        <mxCell id="GFGAYdgl72mIqywiIJQ8-66" value="" style="endArrow=none;dashed=1;html=1;rounded=0;" parent="1" edge="1">
          <mxGeometry width="50" height="50" relative="1" as="geometry">
            <mxPoint x="425" y="209" as="sourcePoint" />
            <mxPoint x="425" y="190" as="targetPoint" />
          </mxGeometry>
        </mxCell>
        <mxCell id="GFGAYdgl72mIqywiIJQ8-67" value="" style="ellipse;html=1;shape=endState;fillColor=#000000;strokeColor=#ff0000;" parent="1" vertex="1">
          <mxGeometry x="647.5" y="470" width="30" height="30" as="geometry" />
        </mxCell>
        <mxCell id="GFGAYdgl72mIqywiIJQ8-68" value="" style="html=1;points=[[0,0,0,0,5],[0,1,0,0,-5],[1,0,0,0,5],[1,1,0,0,-5]];perimeter=orthogonalPerimeter;outlineConnect=0;targetShapes=umlLifeline;portConstraint=eastwest;newEdgeStyle={&quot;curved&quot;:0,&quot;rounded&quot;:0};" parent="1" vertex="1">
          <mxGeometry x="216" y="440" width="10" height="50" as="geometry" />
        </mxCell>
        <mxCell id="GFGAYdgl72mIqywiIJQ8-69" value="" style="endArrow=none;dashed=1;html=1;rounded=0;" parent="1" source="GFGAYdgl72mIqywiIJQ8-68" edge="1">
          <mxGeometry width="50" height="50" relative="1" as="geometry">
            <mxPoint x="220.58" y="429" as="sourcePoint" />
            <mxPoint x="220.58" y="410" as="targetPoint" />
          </mxGeometry>
        </mxCell>
        <mxCell id="GFGAYdgl72mIqywiIJQ8-70" value="" style="endArrow=open;endFill=1;endSize=12;html=1;rounded=0;" parent="1" edge="1">
          <mxGeometry width="160" relative="1" as="geometry">
            <mxPoint x="230" y="480" as="sourcePoint" />
            <mxPoint x="647.5" y="484.58" as="targetPoint" />
          </mxGeometry>
        </mxCell>
        <mxCell id="GFGAYdgl72mIqywiIJQ8-74" value="" style="ellipse;html=1;shape=startState;fillColor=#000000;strokeColor=#ff0000;" parent="1" vertex="1">
          <mxGeometry x="236" y="1240" width="30" height="30" as="geometry" />
        </mxCell>
        <mxCell id="GFGAYdgl72mIqywiIJQ8-75" value="" style="edgeStyle=orthogonalEdgeStyle;html=1;verticalAlign=bottom;endArrow=open;endSize=8;strokeColor=#ff0000;rounded=0;" parent="1" source="GFGAYdgl72mIqywiIJQ8-74" edge="1">
          <mxGeometry relative="1" as="geometry">
            <mxPoint x="360" y="1255" as="targetPoint" />
          </mxGeometry>
        </mxCell>
        <mxCell id="GFGAYdgl72mIqywiIJQ8-80" style="edgeStyle=orthogonalEdgeStyle;rounded=0;orthogonalLoop=1;jettySize=auto;html=1;" parent="1" source="GFGAYdgl72mIqywiIJQ8-76" target="GFGAYdgl72mIqywiIJQ8-79" edge="1">
          <mxGeometry relative="1" as="geometry" />
        </mxCell>
        <mxCell id="GFGAYdgl72mIqywiIJQ8-76" value="Login in" style="html=1;whiteSpace=wrap;" parent="1" vertex="1">
          <mxGeometry x="361" y="1230" width="110" height="50" as="geometry" />
        </mxCell>
        <mxCell id="GFGAYdgl72mIqywiIJQ8-82" style="edgeStyle=orthogonalEdgeStyle;rounded=0;orthogonalLoop=1;jettySize=auto;html=1;entryX=0;entryY=0.5;entryDx=0;entryDy=0;" parent="1" source="GFGAYdgl72mIqywiIJQ8-79" target="GFGAYdgl72mIqywiIJQ8-81" edge="1">
          <mxGeometry relative="1" as="geometry" />
        </mxCell>
        <mxCell id="GFGAYdgl72mIqywiIJQ8-95" value="incorrect credentials" style="edgeLabel;html=1;align=center;verticalAlign=middle;resizable=0;points=[];" parent="GFGAYdgl72mIqywiIJQ8-82" vertex="1" connectable="0">
          <mxGeometry x="-0.3616" y="1" relative="1" as="geometry">
            <mxPoint as="offset" />
          </mxGeometry>
        </mxCell>
        <mxCell id="GFGAYdgl72mIqywiIJQ8-84" style="edgeStyle=orthogonalEdgeStyle;rounded=0;orthogonalLoop=1;jettySize=auto;html=1;entryX=0.5;entryY=0;entryDx=0;entryDy=0;" parent="1" target="GFGAYdgl72mIqywiIJQ8-83" edge="1">
          <mxGeometry relative="1" as="geometry">
            <mxPoint x="416" y="1450" as="sourcePoint" />
            <Array as="points">
              <mxPoint x="417" y="1450" />
              <mxPoint x="417" y="1500" />
              <mxPoint x="416" y="1500" />
            </Array>
          </mxGeometry>
        </mxCell>
        <mxCell id="GFGAYdgl72mIqywiIJQ8-96" value="correct credentials" style="edgeLabel;html=1;align=center;verticalAlign=middle;resizable=0;points=[];" parent="GFGAYdgl72mIqywiIJQ8-84" vertex="1" connectable="0">
          <mxGeometry x="-0.0915" relative="1" as="geometry">
            <mxPoint as="offset" />
          </mxGeometry>
        </mxCell>
        <mxCell id="GFGAYdgl72mIqywiIJQ8-79" value="" style="strokeWidth=2;html=1;shape=mxgraph.flowchart.decision;whiteSpace=wrap;" parent="1" vertex="1">
          <mxGeometry x="366" y="1350" width="100" height="100" as="geometry" />
        </mxCell>
        <mxCell id="GFGAYdgl72mIqywiIJQ8-94" style="edgeStyle=orthogonalEdgeStyle;rounded=0;orthogonalLoop=1;jettySize=auto;html=1;entryX=1;entryY=0.5;entryDx=0;entryDy=0;exitX=0.5;exitY=0;exitDx=0;exitDy=0;" parent="1" target="GFGAYdgl72mIqywiIJQ8-76" edge="1">
          <mxGeometry relative="1" as="geometry">
            <mxPoint x="503" y="1255" as="targetPoint" />
            <mxPoint x="737.5" y="1375" as="sourcePoint" />
            <Array as="points">
              <mxPoint x="695" y="1375" />
              <mxPoint x="695" y="1398" />
              <mxPoint x="698" y="1398" />
              <mxPoint x="698" y="1255" />
            </Array>
          </mxGeometry>
        </mxCell>
        <mxCell id="GFGAYdgl72mIqywiIJQ8-81" value="Login failed" style="html=1;whiteSpace=wrap;" parent="1" vertex="1">
          <mxGeometry x="650.5" y="1375" width="110" height="50" as="geometry" />
        </mxCell>
        <mxCell id="GFGAYdgl72mIqywiIJQ8-86" style="edgeStyle=orthogonalEdgeStyle;rounded=0;orthogonalLoop=1;jettySize=auto;html=1;entryX=0;entryY=0.5;entryDx=0;entryDy=0;" parent="1" source="GFGAYdgl72mIqywiIJQ8-83" target="GFGAYdgl72mIqywiIJQ8-85" edge="1">
          <mxGeometry relative="1" as="geometry" />
        </mxCell>
        <mxCell id="GFGAYdgl72mIqywiIJQ8-83" value="Login Successful" style="html=1;whiteSpace=wrap;" parent="1" vertex="1">
          <mxGeometry x="361" y="1550" width="110" height="50" as="geometry" />
        </mxCell>
        <mxCell id="GFGAYdgl72mIqywiIJQ8-85" value="" style="ellipse;html=1;shape=endState;fillColor=#000000;strokeColor=#ff0000;" parent="1" vertex="1">
          <mxGeometry x="670" y="1560" width="30" height="30" as="geometry" />
        </mxCell>
        <mxCell id="GFGAYdgl72mIqywiIJQ8-97" value="" style="ellipse;html=1;shape=startState;fillColor=#000000;strokeColor=#ff0000;" parent="1" vertex="1">
          <mxGeometry x="266" y="2260" width="30" height="30" as="geometry" />
        </mxCell>
        <mxCell id="GFGAYdgl72mIqywiIJQ8-98" value="" style="edgeStyle=orthogonalEdgeStyle;html=1;verticalAlign=bottom;endArrow=open;endSize=8;strokeColor=#ff0000;rounded=0;entryX=0;entryY=0.5;entryDx=0;entryDy=0;" parent="1" source="GFGAYdgl72mIqywiIJQ8-97" target="GFGAYdgl72mIqywiIJQ8-99" edge="1">
          <mxGeometry relative="1" as="geometry">
            <mxPoint x="410" y="2275" as="targetPoint" />
          </mxGeometry>
        </mxCell>
        <mxCell id="GFGAYdgl72mIqywiIJQ8-103" style="edgeStyle=orthogonalEdgeStyle;rounded=0;orthogonalLoop=1;jettySize=auto;html=1;entryX=0;entryY=0.5;entryDx=0;entryDy=0;" parent="1" source="GFGAYdgl72mIqywiIJQ8-99" target="GFGAYdgl72mIqywiIJQ8-100" edge="1">
          <mxGeometry relative="1" as="geometry" />
        </mxCell>
        <mxCell id="GFGAYdgl72mIqywiIJQ8-99" value="User creates the content" style="rounded=1;arcSize=10;whiteSpace=wrap;html=1;align=center;" parent="1" vertex="1">
          <mxGeometry x="430" y="2255" width="100" height="40" as="geometry" />
        </mxCell>
        <mxCell id="GFGAYdgl72mIqywiIJQ8-109" style="edgeStyle=orthogonalEdgeStyle;rounded=0;orthogonalLoop=1;jettySize=auto;html=1;entryX=0.5;entryY=0;entryDx=0;entryDy=0;" parent="1" source="GFGAYdgl72mIqywiIJQ8-100" target="GFGAYdgl72mIqywiIJQ8-107" edge="1">
          <mxGeometry relative="1" as="geometry" />
        </mxCell>
        <mxCell id="GFGAYdgl72mIqywiIJQ8-100" value="user adds optional tags, location, privacy settings" style="rounded=1;arcSize=10;whiteSpace=wrap;html=1;align=center;" parent="1" vertex="1">
          <mxGeometry x="631" y="2255" width="119" height="40" as="geometry" />
        </mxCell>
        <mxCell id="GFGAYdgl72mIqywiIJQ8-106" style="edgeStyle=orthogonalEdgeStyle;rounded=0;orthogonalLoop=1;jettySize=auto;html=1;entryX=1;entryY=0.5;entryDx=0;entryDy=0;" parent="1" target="GFGAYdgl72mIqywiIJQ8-102" edge="1">
          <mxGeometry relative="1" as="geometry">
            <mxPoint x="635" y="2369.9999999999995" as="sourcePoint" />
          </mxGeometry>
        </mxCell>
        <mxCell id="GFGAYdgl72mIqywiIJQ8-102" value="System validates content and settings" style="rounded=1;arcSize=10;whiteSpace=wrap;html=1;align=center;" parent="1" vertex="1">
          <mxGeometry x="391" y="2350" width="100" height="40" as="geometry" />
        </mxCell>
        <mxCell id="GFGAYdgl72mIqywiIJQ8-107" value="user clicks &quot;Post&quot;" style="rounded=1;whiteSpace=wrap;html=1;arcSize=40;fontColor=#000000;fillColor=#ffffc0;strokeColor=#ff0000;" parent="1" vertex="1">
          <mxGeometry x="631" y="2350" width="120" height="40" as="geometry" />
        </mxCell>
        <mxCell id="GFGAYdgl72mIqywiIJQ8-113" style="edgeStyle=orthogonalEdgeStyle;rounded=0;orthogonalLoop=1;jettySize=auto;html=1;entryX=0;entryY=0.5;entryDx=0;entryDy=0;" parent="1" source="GFGAYdgl72mIqywiIJQ8-110" target="GFGAYdgl72mIqywiIJQ8-112" edge="1">
          <mxGeometry relative="1" as="geometry" />
        </mxCell>
        <mxCell id="GFGAYdgl72mIqywiIJQ8-116" value="Yes" style="edgeLabel;html=1;align=center;verticalAlign=middle;resizable=0;points=[];" parent="GFGAYdgl72mIqywiIJQ8-113" vertex="1" connectable="0">
          <mxGeometry x="-0.4093" y="-2" relative="1" as="geometry">
            <mxPoint as="offset" />
          </mxGeometry>
        </mxCell>
        <mxCell id="GFGAYdgl72mIqywiIJQ8-110" value="" style="strokeWidth=2;html=1;shape=mxgraph.flowchart.decision;whiteSpace=wrap;" parent="1" vertex="1">
          <mxGeometry x="391" y="2440" width="100" height="100" as="geometry" />
        </mxCell>
        <mxCell id="GFGAYdgl72mIqywiIJQ8-111" style="edgeStyle=orthogonalEdgeStyle;rounded=0;orthogonalLoop=1;jettySize=auto;html=1;entryX=0.5;entryY=0;entryDx=0;entryDy=0;entryPerimeter=0;" parent="1" source="GFGAYdgl72mIqywiIJQ8-102" target="GFGAYdgl72mIqywiIJQ8-110" edge="1">
          <mxGeometry relative="1" as="geometry" />
        </mxCell>
        <mxCell id="GFGAYdgl72mIqywiIJQ8-115" style="edgeStyle=orthogonalEdgeStyle;rounded=0;orthogonalLoop=1;jettySize=auto;html=1;entryX=0.5;entryY=0;entryDx=0;entryDy=0;" parent="1" source="GFGAYdgl72mIqywiIJQ8-112" target="GFGAYdgl72mIqywiIJQ8-114" edge="1">
          <mxGeometry relative="1" as="geometry">
            <mxPoint x="677" y="2589.9999999999995" as="targetPoint" />
            <Array as="points">
              <mxPoint x="671" y="2558" />
            </Array>
          </mxGeometry>
        </mxCell>
        <mxCell id="GFGAYdgl72mIqywiIJQ8-112" value="Post is shared" style="rounded=1;arcSize=10;whiteSpace=wrap;html=1;align=center;" parent="1" vertex="1">
          <mxGeometry x="627" y="2470" width="100" height="40" as="geometry" />
        </mxCell>
        <mxCell id="GFGAYdgl72mIqywiIJQ8-114" value="" style="ellipse;html=1;shape=endState;fillColor=#000000;strokeColor=#ff0000;" parent="1" vertex="1">
          <mxGeometry x="652" y="2605" width="37" height="30" as="geometry" />
        </mxCell>
        <mxCell id="GFGAYdgl72mIqywiIJQ8-118" style="edgeStyle=orthogonalEdgeStyle;rounded=0;orthogonalLoop=1;jettySize=auto;html=1;" parent="1" source="GFGAYdgl72mIqywiIJQ8-117" edge="1">
          <mxGeometry relative="1" as="geometry">
            <mxPoint x="650" y="2615" as="targetPoint" />
          </mxGeometry>
        </mxCell>
        <mxCell id="GFGAYdgl72mIqywiIJQ8-117" value="Display Error Message" style="html=1;whiteSpace=wrap;" parent="1" vertex="1">
          <mxGeometry x="370" y="2590" width="110" height="50" as="geometry" />
        </mxCell>
        <mxCell id="GFGAYdgl72mIqywiIJQ8-119" style="edgeStyle=orthogonalEdgeStyle;rounded=0;orthogonalLoop=1;jettySize=auto;html=1;exitX=0.5;exitY=1;exitDx=0;exitDy=0;exitPerimeter=0;entryX=0.647;entryY=0.007;entryDx=0;entryDy=0;entryPerimeter=0;" parent="1" source="GFGAYdgl72mIqywiIJQ8-110" target="GFGAYdgl72mIqywiIJQ8-117" edge="1">
          <mxGeometry relative="1" as="geometry" />
        </mxCell>
        <mxCell id="GFGAYdgl72mIqywiIJQ8-120" value="No" style="edgeLabel;html=1;align=center;verticalAlign=middle;resizable=0;points=[];" parent="GFGAYdgl72mIqywiIJQ8-119" vertex="1" connectable="0">
          <mxGeometry x="-0.327" y="1" relative="1" as="geometry">
            <mxPoint as="offset" />
          </mxGeometry>
        </mxCell>
        <mxCell id="GFGAYdgl72mIqywiIJQ8-121" value="" style="ellipse;html=1;shape=startState;fillColor=#000000;strokeColor=#ff0000;" parent="1" vertex="1">
          <mxGeometry x="266" y="1720" width="30" height="30" as="geometry" />
        </mxCell>
        <mxCell id="GFGAYdgl72mIqywiIJQ8-122" value="" style="edgeStyle=orthogonalEdgeStyle;html=1;verticalAlign=bottom;endArrow=open;endSize=8;strokeColor=#ff0000;rounded=0;" parent="1" source="GFGAYdgl72mIqywiIJQ8-121" edge="1">
          <mxGeometry relative="1" as="geometry">
            <mxPoint x="360" y="1735" as="targetPoint" />
          </mxGeometry>
        </mxCell>
        <mxCell id="GFGAYdgl72mIqywiIJQ8-123" value="System authenticates details" style="rounded=1;arcSize=10;whiteSpace=wrap;html=1;align=center;" parent="1" vertex="1">
          <mxGeometry x="361" y="1715" width="100" height="40" as="geometry" />
        </mxCell>
        <mxCell id="GFGAYdgl72mIqywiIJQ8-127" style="edgeStyle=orthogonalEdgeStyle;rounded=0;orthogonalLoop=1;jettySize=auto;html=1;entryX=0;entryY=0.5;entryDx=0;entryDy=0;" parent="1" source="GFGAYdgl72mIqywiIJQ8-124" target="GFGAYdgl72mIqywiIJQ8-126" edge="1">
          <mxGeometry relative="1" as="geometry" />
        </mxCell>
        <mxCell id="GFGAYdgl72mIqywiIJQ8-138" value="Yes" style="edgeLabel;html=1;align=center;verticalAlign=middle;resizable=0;points=[];" parent="GFGAYdgl72mIqywiIJQ8-127" vertex="1" connectable="0">
          <mxGeometry x="-0.2833" relative="1" as="geometry">
            <mxPoint as="offset" />
          </mxGeometry>
        </mxCell>
        <mxCell id="GFGAYdgl72mIqywiIJQ8-131" style="edgeStyle=orthogonalEdgeStyle;rounded=0;orthogonalLoop=1;jettySize=auto;html=1;entryX=0.5;entryY=0;entryDx=0;entryDy=0;" parent="1" source="GFGAYdgl72mIqywiIJQ8-124" target="GFGAYdgl72mIqywiIJQ8-128" edge="1">
          <mxGeometry relative="1" as="geometry" />
        </mxCell>
        <mxCell id="GFGAYdgl72mIqywiIJQ8-137" value="No" style="edgeLabel;html=1;align=center;verticalAlign=middle;resizable=0;points=[];" parent="GFGAYdgl72mIqywiIJQ8-131" vertex="1" connectable="0">
          <mxGeometry x="-0.3212" y="2" relative="1" as="geometry">
            <mxPoint as="offset" />
          </mxGeometry>
        </mxCell>
        <mxCell id="GFGAYdgl72mIqywiIJQ8-124" value="New User" style="rhombus;whiteSpace=wrap;html=1;" parent="1" vertex="1">
          <mxGeometry x="564" y="1695" width="86" height="80" as="geometry" />
        </mxCell>
        <mxCell id="GFGAYdgl72mIqywiIJQ8-125" style="edgeStyle=orthogonalEdgeStyle;rounded=0;orthogonalLoop=1;jettySize=auto;html=1;entryX=0;entryY=0.5;entryDx=0;entryDy=0;" parent="1" source="GFGAYdgl72mIqywiIJQ8-123" target="GFGAYdgl72mIqywiIJQ8-124" edge="1">
          <mxGeometry relative="1" as="geometry">
            <mxPoint x="540" y="1735" as="targetPoint" />
          </mxGeometry>
        </mxCell>
        <mxCell id="GFGAYdgl72mIqywiIJQ8-130" style="edgeStyle=orthogonalEdgeStyle;rounded=0;orthogonalLoop=1;jettySize=auto;html=1;entryX=0.5;entryY=0;entryDx=0;entryDy=0;" parent="1" source="GFGAYdgl72mIqywiIJQ8-126" target="GFGAYdgl72mIqywiIJQ8-129" edge="1">
          <mxGeometry relative="1" as="geometry" />
        </mxCell>
        <mxCell id="GFGAYdgl72mIqywiIJQ8-126" value="Sign up" style="whiteSpace=wrap;html=1;align=center;" parent="1" vertex="1">
          <mxGeometry x="730" y="1715" width="100" height="40" as="geometry" />
        </mxCell>
        <mxCell id="GFGAYdgl72mIqywiIJQ8-134" style="edgeStyle=orthogonalEdgeStyle;rounded=0;orthogonalLoop=1;jettySize=auto;html=1;" parent="1" source="GFGAYdgl72mIqywiIJQ8-128" edge="1">
          <mxGeometry relative="1" as="geometry">
            <mxPoint x="420" y="1875" as="targetPoint" />
          </mxGeometry>
        </mxCell>
        <mxCell id="GFGAYdgl72mIqywiIJQ8-136" value="No" style="edgeLabel;html=1;align=center;verticalAlign=middle;resizable=0;points=[];" parent="GFGAYdgl72mIqywiIJQ8-134" vertex="1" connectable="0">
          <mxGeometry x="-0.2456" y="1" relative="1" as="geometry">
            <mxPoint as="offset" />
          </mxGeometry>
        </mxCell>
        <mxCell id="GFGAYdgl72mIqywiIJQ8-128" value="authenticate user login" style="rhombus;whiteSpace=wrap;html=1;" parent="1" vertex="1">
          <mxGeometry x="562" y="1830" width="90" height="90" as="geometry" />
        </mxCell>
        <mxCell id="GFGAYdgl72mIqywiIJQ8-129" value="" style="ellipse;html=1;shape=endState;fillColor=#000000;strokeColor=#ff0000;" parent="1" vertex="1">
          <mxGeometry x="765" y="2010" width="30" height="30" as="geometry" />
        </mxCell>
        <mxCell id="GFGAYdgl72mIqywiIJQ8-142" style="edgeStyle=orthogonalEdgeStyle;rounded=0;orthogonalLoop=1;jettySize=auto;html=1;" parent="1" source="GFGAYdgl72mIqywiIJQ8-132" edge="1">
          <mxGeometry relative="1" as="geometry">
            <mxPoint x="760" y="2034.9999999999995" as="targetPoint" />
          </mxGeometry>
        </mxCell>
        <mxCell id="GFGAYdgl72mIqywiIJQ8-132" value="login page" style="html=1;whiteSpace=wrap;" parent="1" vertex="1">
          <mxGeometry x="308" y="2010" width="110" height="50" as="geometry" />
        </mxCell>
        <mxCell id="GFGAYdgl72mIqywiIJQ8-133" value="Error message" style="rounded=1;arcSize=10;whiteSpace=wrap;html=1;align=center;" parent="1" vertex="1">
          <mxGeometry x="319" y="1855" width="100" height="40" as="geometry" />
        </mxCell>
        <mxCell id="GFGAYdgl72mIqywiIJQ8-135" style="edgeStyle=orthogonalEdgeStyle;rounded=0;orthogonalLoop=1;jettySize=auto;html=1;entryX=0.559;entryY=-0.077;entryDx=0;entryDy=0;entryPerimeter=0;" parent="1" source="GFGAYdgl72mIqywiIJQ8-133" target="GFGAYdgl72mIqywiIJQ8-132" edge="1">
          <mxGeometry relative="1" as="geometry" />
        </mxCell>
        <mxCell id="GFGAYdgl72mIqywiIJQ8-143" style="edgeStyle=orthogonalEdgeStyle;rounded=0;orthogonalLoop=1;jettySize=auto;html=1;" parent="1" source="GFGAYdgl72mIqywiIJQ8-139" edge="1">
          <mxGeometry relative="1" as="geometry">
            <mxPoint x="760" y="2019.9999999999995" as="targetPoint" />
          </mxGeometry>
        </mxCell>
        <mxCell id="GFGAYdgl72mIqywiIJQ8-139" value="Home page" style="html=1;whiteSpace=wrap;" parent="1" vertex="1">
          <mxGeometry x="560" y="1970" width="110" height="50" as="geometry" />
        </mxCell>
        <mxCell id="GFGAYdgl72mIqywiIJQ8-140" style="edgeStyle=orthogonalEdgeStyle;rounded=0;orthogonalLoop=1;jettySize=auto;html=1;entryX=0.427;entryY=-0.027;entryDx=0;entryDy=0;entryPerimeter=0;" parent="1" source="GFGAYdgl72mIqywiIJQ8-128" target="GFGAYdgl72mIqywiIJQ8-139" edge="1">
          <mxGeometry relative="1" as="geometry" />
        </mxCell>
        <mxCell id="GFGAYdgl72mIqywiIJQ8-141" value="Yes" style="edgeLabel;html=1;align=center;verticalAlign=middle;resizable=0;points=[];" parent="GFGAYdgl72mIqywiIJQ8-140" vertex="1" connectable="0">
          <mxGeometry x="-0.3346" y="1" relative="1" as="geometry">
            <mxPoint as="offset" />
          </mxGeometry>
        </mxCell>
        <mxCell id="GFGAYdgl72mIqywiIJQ8-144" value="&lt;b&gt;&lt;u&gt;&lt;font style=&quot;font-size: 14px;&quot; face=&quot;Times New Roman&quot;&gt;Content&amp;nbsp; Discovery&lt;/font&gt;&lt;/u&gt;&lt;/b&gt;" style="text;html=1;align=center;verticalAlign=middle;resizable=0;points=[];autosize=1;strokeColor=none;fillColor=none;" parent="1" vertex="1">
          <mxGeometry x="410" y="568" width="140" height="30" as="geometry" />
        </mxCell>
        <mxCell id="GFGAYdgl72mIqywiIJQ8-145" value="&lt;b&gt;&lt;u&gt;&lt;font style=&quot;font-size: 14px;&quot; face=&quot;Times New Roman&quot;&gt;User Friend Request&lt;/font&gt;&lt;/u&gt;&lt;/b&gt;" style="text;html=1;align=center;verticalAlign=middle;resizable=0;points=[];autosize=1;strokeColor=none;fillColor=none;" parent="1" vertex="1">
          <mxGeometry x="383" y="70" width="150" height="30" as="geometry" />
        </mxCell>
        <mxCell id="GFGAYdgl72mIqywiIJQ8-146" value="&lt;b&gt;&lt;u&gt;&lt;font style=&quot;font-size: 14px;&quot; face=&quot;Times New Roman&quot;&gt;User Login&lt;/font&gt;&lt;/u&gt;&lt;/b&gt;" style="text;html=1;align=center;verticalAlign=middle;resizable=0;points=[];autosize=1;strokeColor=none;fillColor=none;" parent="1" vertex="1">
          <mxGeometry x="425" y="1160" width="90" height="30" as="geometry" />
        </mxCell>
        <mxCell id="GFGAYdgl72mIqywiIJQ8-147" value="&lt;b&gt;&lt;u&gt;&lt;font style=&quot;font-size: 14px;&quot; face=&quot;Times New Roman&quot;&gt;User Registration&lt;/font&gt;&lt;/u&gt;&lt;/b&gt;" style="text;html=1;align=center;verticalAlign=middle;resizable=0;points=[];autosize=1;strokeColor=none;fillColor=none;" parent="1" vertex="1">
          <mxGeometry x="452" y="1660" width="130" height="30" as="geometry" />
        </mxCell>
        <mxCell id="GFGAYdgl72mIqywiIJQ8-148" value="&lt;b&gt;&lt;u&gt;&lt;font style=&quot;font-size: 14px;&quot; face=&quot;Times New Roman&quot;&gt;Content Posting&lt;/font&gt;&lt;/u&gt;&lt;/b&gt;" style="text;html=1;align=center;verticalAlign=middle;resizable=0;points=[];autosize=1;strokeColor=none;fillColor=none;" parent="1" vertex="1">
          <mxGeometry x="444" y="2200" width="120" height="30" as="geometry" />
        </mxCell>
        <mxCell id="GFGAYdgl72mIqywiIJQ8-159" value="" style="html=1;points=[[0,0,0,0,5],[0,1,0,0,-5],[1,0,0,0,5],[1,1,0,0,-5]];perimeter=orthogonalPerimeter;outlineConnect=0;targetShapes=umlLifeline;portConstraint=eastwest;newEdgeStyle={&quot;curved&quot;:0,&quot;rounded&quot;:0};" parent="1" vertex="1">
          <mxGeometry x="365" y="2940" width="10" height="80" as="geometry" />
        </mxCell>
        <mxCell id="GFGAYdgl72mIqywiIJQ8-160" value="" style="html=1;points=[[0,0,0,0,5],[0,1,0,0,-5],[1,0,0,0,5],[1,1,0,0,-5]];perimeter=orthogonalPerimeter;outlineConnect=0;targetShapes=umlLifeline;portConstraint=eastwest;newEdgeStyle={&quot;curved&quot;:0,&quot;rounded&quot;:0};" parent="1" vertex="1">
          <mxGeometry x="630" y="2940" width="10" height="80" as="geometry" />
        </mxCell>
        <mxCell id="GFGAYdgl72mIqywiIJQ8-161" value="1: return" style="html=1;verticalAlign=bottom;endArrow=open;dashed=1;endSize=8;curved=0;rounded=0;" parent="1" target="GFGAYdgl72mIqywiIJQ8-162" edge="1">
          <mxGeometry relative="1" as="geometry">
            <mxPoint x="625" y="3100" as="sourcePoint" />
            <mxPoint x="455" y="3100" as="targetPoint" />
          </mxGeometry>
        </mxCell>
        <mxCell id="GFGAYdgl72mIqywiIJQ8-162" value="" style="html=1;points=[[0,0,0,0,5],[0,1,0,0,-5],[1,0,0,0,5],[1,1,0,0,-5]];perimeter=orthogonalPerimeter;outlineConnect=0;targetShapes=umlLifeline;portConstraint=eastwest;newEdgeStyle={&quot;curved&quot;:0,&quot;rounded&quot;:0};" parent="1" vertex="1">
          <mxGeometry x="365" y="3064" width="10" height="80" as="geometry" />
        </mxCell>
        <mxCell id="GFGAYdgl72mIqywiIJQ8-163" value="" style="html=1;points=[[0,0,0,0,5],[0,1,0,0,-5],[1,0,0,0,5],[1,1,0,0,-5]];perimeter=orthogonalPerimeter;outlineConnect=0;targetShapes=umlLifeline;portConstraint=eastwest;newEdgeStyle={&quot;curved&quot;:0,&quot;rounded&quot;:0};" parent="1" vertex="1">
          <mxGeometry x="630" y="3064" width="10" height="80" as="geometry" />
        </mxCell>
        <mxCell id="GFGAYdgl72mIqywiIJQ8-164" value="1: message" style="html=1;verticalAlign=bottom;endArrow=block;curved=0;rounded=0;" parent="1" source="GFGAYdgl72mIqywiIJQ8-159" target="GFGAYdgl72mIqywiIJQ8-160" edge="1">
          <mxGeometry width="80" relative="1" as="geometry">
            <mxPoint x="445" y="2960" as="sourcePoint" />
            <mxPoint x="625" y="2960" as="targetPoint" />
          </mxGeometry>
        </mxCell>
        <mxCell id="GFGAYdgl72mIqywiIJQ8-165" value="user 1" style="shape=umlActor;verticalLabelPosition=bottom;verticalAlign=top;html=1;" parent="1" vertex="1">
          <mxGeometry x="355" y="2820" width="30" height="60" as="geometry" />
        </mxCell>
        <mxCell id="GFGAYdgl72mIqywiIJQ8-166" value="user 2" style="shape=umlActor;verticalLabelPosition=bottom;verticalAlign=top;html=1;" parent="1" vertex="1">
          <mxGeometry x="620" y="2820" width="30" height="60" as="geometry" />
        </mxCell>
        <mxCell id="GFGAYdgl72mIqywiIJQ8-167" value="" style="endArrow=none;dashed=1;html=1;rounded=0;" parent="1" target="GFGAYdgl72mIqywiIJQ8-160" edge="1">
          <mxGeometry width="50" height="50" relative="1" as="geometry">
            <mxPoint x="634.5" y="3064" as="sourcePoint" />
            <mxPoint x="635" y="3030" as="targetPoint" />
          </mxGeometry>
        </mxCell>
        <mxCell id="GFGAYdgl72mIqywiIJQ8-168" value="" style="endArrow=none;dashed=1;html=1;rounded=0;" parent="1" edge="1">
          <mxGeometry width="50" height="50" relative="1" as="geometry">
            <mxPoint x="369.5" y="3064" as="sourcePoint" />
            <mxPoint x="370" y="3020" as="targetPoint" />
          </mxGeometry>
        </mxCell>
        <mxCell id="GFGAYdgl72mIqywiIJQ8-169" value="" style="endArrow=none;dashed=1;html=1;rounded=0;" parent="1" edge="1">
          <mxGeometry width="50" height="50" relative="1" as="geometry">
            <mxPoint x="634.5" y="2932" as="sourcePoint" />
            <mxPoint x="634.5" y="2902" as="targetPoint" />
          </mxGeometry>
        </mxCell>
        <mxCell id="GFGAYdgl72mIqywiIJQ8-170" value="" style="endArrow=none;dashed=1;html=1;rounded=0;" parent="1" edge="1">
          <mxGeometry width="50" height="50" relative="1" as="geometry">
            <mxPoint x="369.5" y="2930" as="sourcePoint" />
            <mxPoint x="369.5" y="2900" as="targetPoint" />
          </mxGeometry>
        </mxCell>
        <mxCell id="GFGAYdgl72mIqywiIJQ8-171" value="&lt;b&gt;&lt;u&gt;&lt;font style=&quot;font-size: 14px;&quot; face=&quot;Times New Roman&quot;&gt;Message&lt;/font&gt;&lt;/u&gt;&lt;/b&gt;" style="text;html=1;align=center;verticalAlign=middle;resizable=0;points=[];autosize=1;strokeColor=none;fillColor=none;" parent="1" vertex="1">
          <mxGeometry x="465" y="2779" width="70" height="30" as="geometry" />
        </mxCell>
        <mxCell id="g_V5Qm2-KfCFKTiSNF6y-3" value="invalid content" style="text;html=1;align=center;verticalAlign=middle;resizable=0;points=[];autosize=1;strokeColor=none;fillColor=none;" vertex="1" parent="1">
          <mxGeometry x="331" y="972" width="100" height="30" as="geometry" />
        </mxCell>
      </root>
    </mxGraphModel>
  </diagram>
</mxfile>
